<svg width="1752" height="592" viewBox="0 0 1752 592" fill="none" xmlns="http://www.w3.org/2000/svg">
<g opacity="0.2">
<path d="M1718.5 507C1728.16 507 1736 499.165 1736 489.5C1736 479.835 1728.16 472 1718.5 472C1708.84 472 1701 479.835 1701 489.5C1701 499.165 1708.84 507 1718.5 507Z" fill="#FF8A00"/>
<path d="M943 568C947.418 568 951 564.418 951 560C951 555.582 947.418 552 943 552C938.582 552 935 555.582 935 560C935 564.418 938.582 568 943 568Z" fill="#FF8A00"/>
<path d="M1005.5 385C1019.03 385 1030 374.031 1030 360.5C1030 346.969 1019.03 336 1005.5 336C991.969 336 981 346.969 981 360.5C981 374.031 991.969 385 1005.5 385Z" fill="#4857EC"/>
<path d="M950 67C962.703 67 973 56.7025 973 44C973 31.2975 962.703 21 950 21C937.297 21 927 31.2975 927 44C927 56.7025 937.297 67 950 67Z" fill="#2FEFB1"/>
<path d="M809 18C813.971 18 818 13.9706 818 9C818 4.02944 813.971 0 809 0C804.029 0 800 4.02944 800 9C800 13.9706 804.029 18 809 18Z" fill="#F7E36D"/>
<path d="M1743 130C1747.97 130 1752 125.971 1752 121C1752 116.029 1747.97 112 1743 112C1738.03 112 1734 116.029 1734 121C1734 125.971 1738.03 130 1743 130Z" fill="#F7E36D"/>
</g>
<path d="M29 203H0V233H29V203Z" fill="#D2DEEC"/>
<path d="M46 247H13V214H46V247ZM16.47 243.53H42.53V217.47H16.47V243.53Z" fill="#D2DEEC"/>
</svg>